<svg width="56" height="56" viewBox="0 0 56 56" fill="none" xmlns="http://www.w3.org/2000/svg">
<path d="M28 0C22.4621 0 17.0486 1.64217 12.444 4.71885C7.83947 7.79553 4.25064 12.1685 2.13139 17.2849C0.0121318 22.4012 -0.542361 28.0311 0.538025 33.4625C1.61841 38.894 4.28515 43.8831 8.20102 47.799C12.1169 51.7148 17.106 54.3816 22.5375 55.462C27.9689 56.5424 33.5988 55.9879 38.7151 53.8686C43.8315 51.7494 48.2045 48.1605 51.2812 43.556C54.3578 38.9514 56 33.5379 56 28C56 26.5689 55.8756 25.1378 55.6889 23.7689C54.1344 25.9487 52.0804 27.7245 49.6988 28.9478C47.3172 30.1711 44.6773 30.8062 42 30.8C38.4384 30.8001 34.9689 29.6689 32.0917 27.5696C29.2146 25.4703 27.0786 22.5114 25.9919 19.1197C24.9052 15.7279 24.9238 12.0787 26.0452 8.69822C27.1666 5.31777 29.3327 2.38087 32.2311 0.311111C30.8622 0.124444 29.4311 0 28 0V0Z" fill="#585E57"/>
</svg>
