<svg width="56" height="56" viewBox="0 0 56 56" fill="none" xmlns="http://www.w3.org/2000/svg">
<path d="M28 15.2727C20.9745 15.2727 15.2727 20.9745 15.2727 28C15.2727 35.0255 20.9745 40.7273 28 40.7273C35.0255 40.7273 40.7273 35.0255 40.7273 28C40.7273 20.9745 35.0255 15.2727 28 15.2727ZM2.54545 30.5455H7.63636C9.03636 30.5455 10.1818 29.4 10.1818 28C10.1818 26.6 9.03636 25.4545 7.63636 25.4545H2.54545C1.14545 25.4545 0 26.6 0 28C0 29.4 1.14545 30.5455 2.54545 30.5455ZM48.3636 30.5455H53.4545C54.8545 30.5455 56 29.4 56 28C56 26.6 54.8545 25.4545 53.4545 25.4545H48.3636C46.9636 25.4545 45.8182 26.6 45.8182 28C45.8182 29.4 46.9636 30.5455 48.3636 30.5455ZM25.4545 2.54545V7.63636C25.4545 9.03636 26.6 10.1818 28 10.1818C29.4 10.1818 30.5455 9.03636 30.5455 7.63636V2.54545C30.5455 1.14545 29.4 0 28 0C26.6 0 25.4545 1.14545 25.4545 2.54545ZM25.4545 48.3636V53.4545C25.4545 54.8545 26.6 56 28 56C29.4 56 30.5455 54.8545 30.5455 53.4545V48.3636C30.5455 46.9636 29.4 45.8182 28 45.8182C26.6 45.8182 25.4545 46.9636 25.4545 48.3636ZM12.7018 9.11273C12.4663 8.87675 12.1866 8.68954 11.8787 8.56181C11.5707 8.43407 11.2406 8.36832 10.9073 8.36832C10.5739 8.36832 10.2438 8.43407 9.93587 8.56181C9.62793 8.68954 9.34822 8.87675 9.11273 9.11273C8.87675 9.34822 8.68954 9.62793 8.56181 9.93587C8.43407 10.2438 8.36832 10.5739 8.36832 10.9073C8.36832 11.2406 8.43407 11.5707 8.56181 11.8787C8.68954 12.1866 8.87675 12.4663 9.11273 12.7018L11.8109 15.4C12.8036 16.3927 14.4327 16.3927 15.4 15.4C16.3673 14.4073 16.3927 12.7782 15.4 11.8109L12.7018 9.11273ZM44.1891 40.6C43.9536 40.364 43.6739 40.1768 43.366 40.0491C43.058 39.9213 42.7279 39.8556 42.3945 39.8556C42.0612 39.8556 41.7311 39.9213 41.4231 40.0491C41.1152 40.1768 40.8355 40.364 40.6 40.6C40.364 40.8355 40.1768 41.1152 40.0491 41.4231C39.9213 41.7311 39.8556 42.0612 39.8556 42.3945C39.8556 42.7279 39.9213 43.058 40.0491 43.366C40.1768 43.6739 40.364 43.9536 40.6 44.1891L43.2982 46.8873C44.2909 47.88 45.92 47.88 46.8873 46.8873C47.1232 46.6518 47.3105 46.3721 47.4382 46.0641C47.5659 45.7562 47.6317 45.4261 47.6317 45.0927C47.6317 44.7594 47.5659 44.4293 47.4382 44.1213C47.3105 43.8134 47.1232 43.5337 46.8873 43.2982L44.1891 40.6ZM46.8873 12.7018C47.1232 12.4663 47.3105 12.1866 47.4382 11.8787C47.5659 11.5707 47.6317 11.2406 47.6317 10.9073C47.6317 10.5739 47.5659 10.2438 47.4382 9.93587C47.3105 9.62793 47.1232 9.34822 46.8873 9.11273C46.6518 8.87675 46.3721 8.68954 46.0641 8.56181C45.7562 8.43407 45.4261 8.36832 45.0927 8.36832C44.7594 8.36832 44.4293 8.43407 44.1213 8.56181C43.8134 8.68954 43.5337 8.87675 43.2982 9.11273L40.6 11.8109C39.6073 12.8036 39.6073 14.4327 40.6 15.4C41.5927 16.3673 43.2218 16.3927 44.1891 15.4L46.8873 12.7018ZM15.4 44.1891C15.636 43.9536 15.8232 43.6739 15.9509 43.366C16.0787 43.058 16.1444 42.7279 16.1444 42.3945C16.1444 42.0612 16.0787 41.7311 15.9509 41.4231C15.8232 41.1152 15.636 40.8355 15.4 40.6C15.1645 40.364 14.8848 40.1768 14.5769 40.0491C14.2689 39.9213 13.9388 39.8556 13.6055 39.8556C13.2721 39.8556 12.942 39.9213 12.634 40.0491C12.3261 40.1768 12.0464 40.364 11.8109 40.6L9.11273 43.2982C8.12 44.2909 8.12 45.92 9.11273 46.8873C10.1055 47.8545 11.7345 47.88 12.7018 46.8873L15.4 44.1891V44.1891Z" fill="#F3FAF2"/>
</svg>
